<svg viewBox="0 0 572 379" fill="none" xmlns="http://www.w3.org/2000/svg">
<circle cx="420.646" cy="228.354" r="150.5" fill="#6F2DBD"/>
<path fill-rule="evenodd" clip-rule="evenodd" d="M398.437 105.879C373.819 105.879 359.201 121.375 359.201 134.58C359.201 141.997 353.196 148.014 345.779 148.014C338.362 148.014 332.357 141.997 332.357 134.58C332.357 101.261 364.888 79.0237 398.437 79.0237C431.986 79.0237 464.53 101.261 464.53 134.58V222.475C465.331 225.668 467.036 230.312 469.683 234.459C472.736 239.23 475.955 241.685 478.906 242.398C486.12 244.128 490.56 251.366 488.83 258.58C487.1 265.793 479.848 270.233 472.647 268.503C462.634 266.098 455.357 259.89 450.294 253.491C437.686 266.684 418.233 274.418 398.437 274.418C364.888 274.418 332.357 252.193 332.357 218.862C332.357 185.544 364.888 163.319 398.437 163.319H437.673V134.58C437.673 121.375 423.055 105.879 398.437 105.879ZM398.437 190.162H437.673V218.862C437.673 232.08 423.055 247.575 398.437 247.575C373.819 247.575 359.201 232.08 359.201 218.862C359.201 205.657 373.819 190.162 398.437 190.162ZM292.713 300.155C287.027 295.384 278.553 296.135 273.795 301.821C269.037 307.508 269.788 315.981 275.475 320.739C304.825 345.317 361.084 365.927 428.894 362.619C462.571 360.978 491.654 353.803 514.733 345.215L527.582 366.512C529.249 369.272 532.048 371.13 535.241 371.6C538.422 372.058 541.653 371.066 544.02 368.891C556.679 357.327 562.913 340.254 566.08 327.456C567.722 320.853 568.65 314.912 569.172 310.612C569.439 308.449 569.605 306.694 569.706 305.447C569.757 304.824 569.783 304.327 569.808 303.971L569.834 303.551L569.846 303.411V303.348C569.846 303.348 569.846 303.348 559.109 302.864L569.846 303.348C570.037 299.022 567.607 294.99 563.689 293.145L559.109 302.864C563.689 293.145 563.689 293.145 563.689 293.145H563.676L563.663 293.132L563.625 293.119L563.511 293.056L563.116 292.89C562.798 292.738 562.34 292.534 561.768 292.293C560.623 291.796 558.981 291.122 556.958 290.346C552.9 288.807 547.213 286.86 540.61 285.232C527.799 282.064 509.796 279.609 493.664 285.41C490.636 286.504 488.257 288.896 487.176 291.924C486.094 294.951 486.438 298.31 488.105 301.071L500.585 321.769C480.7 328.702 456.006 334.415 427.584 335.801C365.142 338.854 315.919 319.581 292.713 300.155Z" fill="white"/>
<path d="M15.344 342.795C11.5041 343.061 8.37159 342.417 5.9464 340.876C3.49594 339.36 1.82862 337.364 0.944428 334.914C0.0349789 332.489 -0.217646 330.064 0.186554 327.639C0.565489 325.214 1.63915 323.104 3.42015 321.323C5.21378 319.53 7.65161 318.646 10.7463 318.646C24.8175 317.863 35.2509 314.073 42.0212 307.278C48.7915 300.508 52.1767 289.823 52.1767 275.247V95.9423C52.1767 90.8269 53.5156 86.9367 56.2187 84.2716C58.9092 81.5813 62.8122 80.2298 67.9405 80.2298C72.7909 80.2298 76.555 81.5813 79.2581 84.2716C81.9485 86.9367 83.3001 90.8269 83.3001 95.9423V272.923C83.3001 288.547 80.6728 301.417 75.4182 311.522C70.1636 321.626 62.5469 329.167 52.5809 334.156C42.6022 339.17 30.1984 342.05 15.344 342.795ZM67.5363 37.993C61.1322 37.993 56.1429 36.2752 52.5809 32.8396C49.0063 29.3789 47.2253 24.6929 47.2253 18.7944C47.2253 12.6306 49.0063 7.96993 52.5809 4.79964C56.1429 1.60409 61.1322 0 67.5363 0C74.2056 0 79.3212 1.60409 82.8959 4.79964C86.4958 7.96993 88.302 12.6306 88.302 18.7944C88.302 24.6929 86.4958 29.3789 82.8959 32.8396C79.3212 36.2752 74.2056 37.993 67.5363 37.993Z" fill="white"/>
<path d="M211.148 272.165C206.803 272.165 202.963 270.953 199.628 268.528C196.294 266.102 193.477 262.339 191.191 257.21L124.75 102.106C122.957 98.2666 122.325 94.6795 122.83 91.345C123.336 88.0105 124.864 85.3328 127.428 83.3119C129.98 81.2657 133.567 80.23 138.19 80.23C142.295 80.23 145.491 81.1268 147.79 82.9077C150.076 84.7013 152.135 87.8968 153.954 92.507L216.908 246.449H206.55L270.666 92.507C272.447 87.8968 274.481 84.7013 276.78 82.9077C279.104 81.1268 282.439 80.23 286.784 80.23C290.889 80.23 294.022 81.2657 296.181 83.3119C298.367 85.3328 299.642 87.9473 300.021 91.1429C300.426 94.3511 299.845 97.8624 298.303 101.702L231.105 257.21C229.312 262.339 226.684 266.102 223.223 268.528C219.788 270.953 215.758 272.165 211.148 272.165Z" fill="white"/>
</svg>
