<svg viewBox="0 0 815 352" fill="none" xmlns="http://www.w3.org/2000/svg">
<path fill-rule="evenodd" clip-rule="evenodd" d="M710.401 60.7994H756.795V342.399H814.395V7.99921H756.795V7.99936L734.312 7.99936L710.401 60.7994Z" fill="#FAFAFA"/>
<path fill-rule="evenodd" clip-rule="evenodd" d="M85.6062 59.2658L76.9159 115.403C90.5185 110.251 105.319 107.424 120.8 107.424C187.516 107.424 241.6 159.936 241.6 224.712C241.6 289.489 187.516 342.001 120.8 342.001C54.084 342.001 0 289.489 0 224.712C0 224.453 0.000867894 224.194 0.00260102 223.935H52.8189C52.8064 224.451 52.8002 224.969 52.8002 225.489C52.8002 261.523 82.8866 290.735 120 290.735C127.716 290.735 135.128 289.473 142.029 287.149L174.813 314.978L166.247 272.827C179.152 260.938 187.2 244.126 187.2 225.489C187.2 189.454 157.114 160.242 120 160.242C98.5954 160.242 79.528 169.959 67.2217 185.097H63.9995V185.072L12.8005 185.098L40.0002 9.39362V8.00073L224 8.00073V59.2659L85.6062 59.2658Z" fill="#FAFAFA"/>
<path fill-rule="evenodd" clip-rule="evenodd" d="M684.8 128.322C684.8 157.377 674.255 184.027 656.699 204.82L656.799 204.89L543.811 342.401H465.554L543.812 247.399C484.199 238.98 438.4 188.875 438.4 128.322C438.4 61.8706 493.558 8.00079 561.6 8.00079C629.641 8.00079 684.8 61.8706 684.8 128.322ZM561.599 197.078C569.977 197.078 578.021 195.68 585.499 193.111L613.213 216.774L606.183 181.979C622.881 169.101 633.599 149.153 633.599 126.76C633.599 87.9245 601.364 56.4421 561.599 56.4421C521.835 56.4421 489.599 87.9245 489.599 126.76C489.599 165.595 521.835 197.078 561.599 197.078Z" fill="#FAFAFA"/>
<path d="M276.805 60.8001H323.201V342.399H380.801V7.99921L300.716 8.00008L276.805 60.8001Z" fill="#FAFAFA"/>
<ellipse cx="120" cy="225.501" rx="24" ry="23.5" fill="#FAFAFA"/>
<ellipse cx="562" cy="128.501" rx="24" ry="23.5" fill="#FAFAFA"/>
</svg>
