<svg viewBox="0 0 302 302" fill="none" xmlns="http://www.w3.org/2000/svg">
<circle cx="150.646" cy="151.354" r="150.5" fill="#79EE8D"/>
<path fill-rule="evenodd" clip-rule="evenodd" d="M22.7134 223.155C17.0265 218.384 8.55336 219.135 3.79517 224.821C-0.963023 230.508 -0.212409 238.981 5.47452 243.739C34.8252 268.317 91.0838 288.927 158.894 285.619C192.571 283.978 221.654 276.803 244.733 268.215L257.582 289.512C259.249 292.272 262.048 294.13 265.241 294.601C268.422 295.058 271.653 294.066 274.02 291.891C286.679 280.327 292.913 263.254 296.08 250.456C297.722 243.853 298.65 237.912 299.172 233.612C299.439 231.449 299.605 229.694 299.706 228.447C299.757 227.824 299.783 227.327 299.808 226.971L299.834 226.551L299.846 226.411V226.348C299.846 226.348 299.846 226.348 289.109 225.864L299.846 226.348C300.037 222.022 297.607 217.99 293.689 216.145L289.109 225.864C293.689 216.145 293.689 216.145 293.689 216.145H293.676L293.663 216.132L293.625 216.12L293.511 216.056L293.116 215.891C292.798 215.738 292.34 215.534 291.768 215.293C290.623 214.796 288.981 214.122 286.958 213.346C282.9 211.807 277.213 209.86 270.61 208.232C257.799 205.064 239.796 202.609 223.664 208.41C220.636 209.504 218.257 211.896 217.176 214.924C216.094 217.951 216.438 221.31 218.105 224.071L230.585 244.769C210.7 251.702 186.006 257.415 157.584 258.801C95.1423 261.855 45.9192 242.581 22.7134 223.155Z" fill="#0C098C"/>
</svg>
